<mxfile host="app.diagrams.net" modified="2022-05-26T10:02:39.705Z" agent="5.0 (Windows NT 10.0; Win64; x64) AppleWebKit/537.36 (KHTML, like Gecko) Chrome/101.0.4951.67 Safari/537.36" etag="YgrFWQaOvv9sJZJ4qVqd" version="18.1.2" type="github">
  <diagram id="C5RBs43oDa-KdzZeNtuy" name="Page-1">
    <mxGraphModel dx="1422" dy="754" grid="1" gridSize="10" guides="1" tooltips="1" connect="1" arrows="1" fold="1" page="1" pageScale="1" pageWidth="827" pageHeight="1169" math="0" shadow="0">
      <root>
        <mxCell id="WIyWlLk6GJQsqaUBKTNV-0" />
        <mxCell id="WIyWlLk6GJQsqaUBKTNV-1" parent="WIyWlLk6GJQsqaUBKTNV-0" />
        <mxCell id="i68KkpBujc6OQGkgbkto-45" style="edgeStyle=none;rounded=0;orthogonalLoop=1;jettySize=auto;html=1;exitX=0.5;exitY=1;exitDx=0;exitDy=0;entryX=0.5;entryY=0;entryDx=0;entryDy=0;" edge="1" parent="WIyWlLk6GJQsqaUBKTNV-1" source="i68KkpBujc6OQGkgbkto-0" target="i68KkpBujc6OQGkgbkto-1">
          <mxGeometry relative="1" as="geometry" />
        </mxCell>
        <mxCell id="i68KkpBujc6OQGkgbkto-46" style="edgeStyle=none;rounded=0;orthogonalLoop=1;jettySize=auto;html=1;exitX=0.5;exitY=1;exitDx=0;exitDy=0;entryX=0.5;entryY=0;entryDx=0;entryDy=0;" edge="1" parent="WIyWlLk6GJQsqaUBKTNV-1" source="i68KkpBujc6OQGkgbkto-0" target="i68KkpBujc6OQGkgbkto-2">
          <mxGeometry relative="1" as="geometry" />
        </mxCell>
        <mxCell id="i68KkpBujc6OQGkgbkto-47" style="edgeStyle=none;rounded=0;orthogonalLoop=1;jettySize=auto;html=1;exitX=0.5;exitY=1;exitDx=0;exitDy=0;entryX=0.5;entryY=0;entryDx=0;entryDy=0;" edge="1" parent="WIyWlLk6GJQsqaUBKTNV-1" source="i68KkpBujc6OQGkgbkto-0" target="i68KkpBujc6OQGkgbkto-3">
          <mxGeometry relative="1" as="geometry" />
        </mxCell>
        <mxCell id="i68KkpBujc6OQGkgbkto-0" value="Gateway" style="rounded=1;whiteSpace=wrap;html=1;fillColor=#e1d5e7;strokeColor=#9673a6;" vertex="1" parent="WIyWlLk6GJQsqaUBKTNV-1">
          <mxGeometry x="734" y="195" width="120" height="60" as="geometry" />
        </mxCell>
        <mxCell id="i68KkpBujc6OQGkgbkto-48" style="edgeStyle=none;rounded=0;orthogonalLoop=1;jettySize=auto;html=1;exitX=0.5;exitY=1;exitDx=0;exitDy=0;entryX=0.5;entryY=0;entryDx=0;entryDy=0;" edge="1" parent="WIyWlLk6GJQsqaUBKTNV-1" source="i68KkpBujc6OQGkgbkto-1" target="i68KkpBujc6OQGkgbkto-12">
          <mxGeometry relative="1" as="geometry" />
        </mxCell>
        <mxCell id="i68KkpBujc6OQGkgbkto-49" style="edgeStyle=none;rounded=0;orthogonalLoop=1;jettySize=auto;html=1;exitX=0.5;exitY=1;exitDx=0;exitDy=0;entryX=0.5;entryY=0;entryDx=0;entryDy=0;" edge="1" parent="WIyWlLk6GJQsqaUBKTNV-1" source="i68KkpBujc6OQGkgbkto-1" target="i68KkpBujc6OQGkgbkto-14">
          <mxGeometry relative="1" as="geometry" />
        </mxCell>
        <mxCell id="i68KkpBujc6OQGkgbkto-1" value="Business Service A" style="rounded=1;whiteSpace=wrap;html=1;fillColor=#fff2cc;strokeColor=#d6b656;" vertex="1" parent="WIyWlLk6GJQsqaUBKTNV-1">
          <mxGeometry x="474" y="355" width="120" height="60" as="geometry" />
        </mxCell>
        <mxCell id="i68KkpBujc6OQGkgbkto-50" style="edgeStyle=none;rounded=0;orthogonalLoop=1;jettySize=auto;html=1;exitX=0.5;exitY=1;exitDx=0;exitDy=0;entryX=0.5;entryY=0;entryDx=0;entryDy=0;" edge="1" parent="WIyWlLk6GJQsqaUBKTNV-1" source="i68KkpBujc6OQGkgbkto-2" target="i68KkpBujc6OQGkgbkto-17">
          <mxGeometry relative="1" as="geometry" />
        </mxCell>
        <mxCell id="i68KkpBujc6OQGkgbkto-51" style="edgeStyle=none;rounded=0;orthogonalLoop=1;jettySize=auto;html=1;exitX=0.5;exitY=1;exitDx=0;exitDy=0;entryX=0.5;entryY=0;entryDx=0;entryDy=0;" edge="1" parent="WIyWlLk6GJQsqaUBKTNV-1" source="i68KkpBujc6OQGkgbkto-2" target="i68KkpBujc6OQGkgbkto-18">
          <mxGeometry relative="1" as="geometry" />
        </mxCell>
        <mxCell id="i68KkpBujc6OQGkgbkto-2" value="Business Service B" style="rounded=1;whiteSpace=wrap;html=1;fillColor=#fff2cc;strokeColor=#d6b656;" vertex="1" parent="WIyWlLk6GJQsqaUBKTNV-1">
          <mxGeometry x="734" y="355" width="120" height="60" as="geometry" />
        </mxCell>
        <mxCell id="i68KkpBujc6OQGkgbkto-52" style="edgeStyle=none;rounded=0;orthogonalLoop=1;jettySize=auto;html=1;exitX=0.5;exitY=1;exitDx=0;exitDy=0;entryX=0.5;entryY=0;entryDx=0;entryDy=0;" edge="1" parent="WIyWlLk6GJQsqaUBKTNV-1" source="i68KkpBujc6OQGkgbkto-3" target="i68KkpBujc6OQGkgbkto-15">
          <mxGeometry relative="1" as="geometry" />
        </mxCell>
        <mxCell id="i68KkpBujc6OQGkgbkto-53" style="edgeStyle=none;rounded=0;orthogonalLoop=1;jettySize=auto;html=1;exitX=0.5;exitY=1;exitDx=0;exitDy=0;entryX=0.5;entryY=0;entryDx=0;entryDy=0;" edge="1" parent="WIyWlLk6GJQsqaUBKTNV-1" source="i68KkpBujc6OQGkgbkto-3" target="i68KkpBujc6OQGkgbkto-16">
          <mxGeometry relative="1" as="geometry" />
        </mxCell>
        <mxCell id="i68KkpBujc6OQGkgbkto-3" value="Business Service C" style="rounded=1;whiteSpace=wrap;html=1;fillColor=#fff2cc;strokeColor=#d6b656;" vertex="1" parent="WIyWlLk6GJQsqaUBKTNV-1">
          <mxGeometry x="994" y="355" width="120" height="60" as="geometry" />
        </mxCell>
        <mxCell id="i68KkpBujc6OQGkgbkto-11" style="edgeStyle=none;rounded=0;orthogonalLoop=1;jettySize=auto;html=1;exitX=0.5;exitY=1;exitDx=0;exitDy=0;entryX=0.5;entryY=0;entryDx=0;entryDy=0;" edge="1" parent="WIyWlLk6GJQsqaUBKTNV-1" source="i68KkpBujc6OQGkgbkto-9" target="i68KkpBujc6OQGkgbkto-0">
          <mxGeometry relative="1" as="geometry" />
        </mxCell>
        <mxCell id="i68KkpBujc6OQGkgbkto-9" value="Web" style="rounded=1;whiteSpace=wrap;html=1;fillColor=#f8cecc;strokeColor=#b85450;" vertex="1" parent="WIyWlLk6GJQsqaUBKTNV-1">
          <mxGeometry x="734" y="20" width="120" height="60" as="geometry" />
        </mxCell>
        <mxCell id="i68KkpBujc6OQGkgbkto-30" style="edgeStyle=none;rounded=0;orthogonalLoop=1;jettySize=auto;html=1;exitX=0.5;exitY=1;exitDx=0;exitDy=0;entryX=0.5;entryY=0;entryDx=0;entryDy=0;entryPerimeter=0;" edge="1" parent="WIyWlLk6GJQsqaUBKTNV-1" source="i68KkpBujc6OQGkgbkto-12" target="i68KkpBujc6OQGkgbkto-29">
          <mxGeometry relative="1" as="geometry" />
        </mxCell>
        <mxCell id="i68KkpBujc6OQGkgbkto-12" value="Data Service 1" style="rounded=1;whiteSpace=wrap;html=1;fillColor=#dae8fc;strokeColor=#6c8ebf;" vertex="1" parent="WIyWlLk6GJQsqaUBKTNV-1">
          <mxGeometry x="410" y="530" width="120" height="60" as="geometry" />
        </mxCell>
        <mxCell id="i68KkpBujc6OQGkgbkto-33" style="edgeStyle=none;rounded=0;orthogonalLoop=1;jettySize=auto;html=1;exitX=0.5;exitY=1;exitDx=0;exitDy=0;entryX=0.5;entryY=0;entryDx=0;entryDy=0;entryPerimeter=0;" edge="1" parent="WIyWlLk6GJQsqaUBKTNV-1" source="i68KkpBujc6OQGkgbkto-14" target="i68KkpBujc6OQGkgbkto-29">
          <mxGeometry relative="1" as="geometry" />
        </mxCell>
        <mxCell id="i68KkpBujc6OQGkgbkto-14" value="Data Service 2" style="rounded=1;whiteSpace=wrap;html=1;fillColor=#dae8fc;strokeColor=#6c8ebf;" vertex="1" parent="WIyWlLk6GJQsqaUBKTNV-1">
          <mxGeometry x="540" y="530" width="120" height="60" as="geometry" />
        </mxCell>
        <mxCell id="i68KkpBujc6OQGkgbkto-32" style="edgeStyle=none;rounded=0;orthogonalLoop=1;jettySize=auto;html=1;exitX=0.5;exitY=1;exitDx=0;exitDy=0;entryX=0.5;entryY=0;entryDx=0;entryDy=0;entryPerimeter=0;" edge="1" parent="WIyWlLk6GJQsqaUBKTNV-1" source="i68KkpBujc6OQGkgbkto-15" target="i68KkpBujc6OQGkgbkto-29">
          <mxGeometry relative="1" as="geometry" />
        </mxCell>
        <mxCell id="i68KkpBujc6OQGkgbkto-15" value="Data Service 5" style="rounded=1;whiteSpace=wrap;html=1;fillColor=#dae8fc;strokeColor=#6c8ebf;" vertex="1" parent="WIyWlLk6GJQsqaUBKTNV-1">
          <mxGeometry x="930" y="530" width="120" height="60" as="geometry" />
        </mxCell>
        <mxCell id="i68KkpBujc6OQGkgbkto-31" style="edgeStyle=none;rounded=0;orthogonalLoop=1;jettySize=auto;html=1;exitX=0.5;exitY=1;exitDx=0;exitDy=0;entryX=0.5;entryY=0;entryDx=0;entryDy=0;entryPerimeter=0;" edge="1" parent="WIyWlLk6GJQsqaUBKTNV-1" source="i68KkpBujc6OQGkgbkto-16" target="i68KkpBujc6OQGkgbkto-29">
          <mxGeometry relative="1" as="geometry" />
        </mxCell>
        <mxCell id="i68KkpBujc6OQGkgbkto-16" value="Data Service 6" style="rounded=1;whiteSpace=wrap;html=1;fillColor=#dae8fc;strokeColor=#6c8ebf;" vertex="1" parent="WIyWlLk6GJQsqaUBKTNV-1">
          <mxGeometry x="1060" y="530" width="120" height="60" as="geometry" />
        </mxCell>
        <mxCell id="i68KkpBujc6OQGkgbkto-34" style="edgeStyle=none;rounded=0;orthogonalLoop=1;jettySize=auto;html=1;exitX=0.5;exitY=1;exitDx=0;exitDy=0;entryX=0.5;entryY=0;entryDx=0;entryDy=0;entryPerimeter=0;" edge="1" parent="WIyWlLk6GJQsqaUBKTNV-1" source="i68KkpBujc6OQGkgbkto-17" target="i68KkpBujc6OQGkgbkto-29">
          <mxGeometry relative="1" as="geometry" />
        </mxCell>
        <mxCell id="i68KkpBujc6OQGkgbkto-17" value="Data Service 3" style="rounded=1;whiteSpace=wrap;html=1;fillColor=#dae8fc;strokeColor=#6c8ebf;" vertex="1" parent="WIyWlLk6GJQsqaUBKTNV-1">
          <mxGeometry x="670" y="530" width="120" height="60" as="geometry" />
        </mxCell>
        <mxCell id="i68KkpBujc6OQGkgbkto-35" style="edgeStyle=none;rounded=0;orthogonalLoop=1;jettySize=auto;html=1;exitX=0.5;exitY=1;exitDx=0;exitDy=0;entryX=0.5;entryY=0;entryDx=0;entryDy=0;entryPerimeter=0;" edge="1" parent="WIyWlLk6GJQsqaUBKTNV-1" source="i68KkpBujc6OQGkgbkto-18" target="i68KkpBujc6OQGkgbkto-29">
          <mxGeometry relative="1" as="geometry" />
        </mxCell>
        <mxCell id="i68KkpBujc6OQGkgbkto-18" value="Data Service 4" style="rounded=1;whiteSpace=wrap;html=1;fillColor=#dae8fc;strokeColor=#6c8ebf;" vertex="1" parent="WIyWlLk6GJQsqaUBKTNV-1">
          <mxGeometry x="800" y="530" width="120" height="60" as="geometry" />
        </mxCell>
        <mxCell id="i68KkpBujc6OQGkgbkto-29" value="DB" style="strokeWidth=2;html=1;shape=mxgraph.flowchart.database;whiteSpace=wrap;fillColor=#f5f5f5;fontColor=#333333;strokeColor=#666666;" vertex="1" parent="WIyWlLk6GJQsqaUBKTNV-1">
          <mxGeometry x="764" y="680" width="60" height="60" as="geometry" />
        </mxCell>
        <mxCell id="i68KkpBujc6OQGkgbkto-36" value="Redis" style="strokeWidth=2;html=1;shape=mxgraph.flowchart.database;whiteSpace=wrap;fillColor=#a20025;fontColor=#ffffff;strokeColor=#6F0000;" vertex="1" parent="WIyWlLk6GJQsqaUBKTNV-1">
          <mxGeometry x="1370" y="430" width="60" height="60" as="geometry" />
        </mxCell>
        <mxCell id="i68KkpBujc6OQGkgbkto-40" value="" style="endArrow=none;dashed=1;html=1;dashPattern=1 3;strokeWidth=2;rounded=0;entryX=0;entryY=0.5;entryDx=0;entryDy=0;entryPerimeter=0;exitX=1;exitY=0.5;exitDx=0;exitDy=0;" edge="1" parent="WIyWlLk6GJQsqaUBKTNV-1" source="i68KkpBujc6OQGkgbkto-3" target="i68KkpBujc6OQGkgbkto-36">
          <mxGeometry width="50" height="50" relative="1" as="geometry">
            <mxPoint x="1210" y="440" as="sourcePoint" />
            <mxPoint x="1260" y="390" as="targetPoint" />
          </mxGeometry>
        </mxCell>
        <mxCell id="i68KkpBujc6OQGkgbkto-41" value="" style="endArrow=none;dashed=1;html=1;dashPattern=1 3;strokeWidth=2;rounded=0;entryX=0;entryY=0.5;entryDx=0;entryDy=0;entryPerimeter=0;exitX=1;exitY=0.5;exitDx=0;exitDy=0;" edge="1" parent="WIyWlLk6GJQsqaUBKTNV-1" source="i68KkpBujc6OQGkgbkto-16" target="i68KkpBujc6OQGkgbkto-36">
          <mxGeometry width="50" height="50" relative="1" as="geometry">
            <mxPoint x="1124" y="422.5" as="sourcePoint" />
            <mxPoint x="1380" y="497.5" as="targetPoint" />
          </mxGeometry>
        </mxCell>
        <mxCell id="i68KkpBujc6OQGkgbkto-43" value="" style="shape=doubleArrow;whiteSpace=wrap;html=1;" vertex="1" parent="WIyWlLk6GJQsqaUBKTNV-1">
          <mxGeometry x="610" y="355" width="100" height="60" as="geometry" />
        </mxCell>
        <mxCell id="i68KkpBujc6OQGkgbkto-44" value="" style="shape=doubleArrow;whiteSpace=wrap;html=1;" vertex="1" parent="WIyWlLk6GJQsqaUBKTNV-1">
          <mxGeometry x="880" y="355" width="100" height="60" as="geometry" />
        </mxCell>
        <mxCell id="i68KkpBujc6OQGkgbkto-54" value="Message Queue" style="rounded=1;whiteSpace=wrap;html=1;fillColor=#f0a30a;fontColor=#000000;strokeColor=#BD7000;" vertex="1" parent="WIyWlLk6GJQsqaUBKTNV-1">
          <mxGeometry x="120" y="430" width="120" height="60" as="geometry" />
        </mxCell>
        <mxCell id="i68KkpBujc6OQGkgbkto-55" value="" style="endArrow=none;dashed=1;html=1;dashPattern=1 3;strokeWidth=2;rounded=0;exitX=1;exitY=0.5;exitDx=0;exitDy=0;entryX=0;entryY=0.5;entryDx=0;entryDy=0;" edge="1" parent="WIyWlLk6GJQsqaUBKTNV-1" source="i68KkpBujc6OQGkgbkto-54" target="i68KkpBujc6OQGkgbkto-1">
          <mxGeometry width="50" height="50" relative="1" as="geometry">
            <mxPoint x="740" y="440" as="sourcePoint" />
            <mxPoint x="790" y="390" as="targetPoint" />
          </mxGeometry>
        </mxCell>
        <mxCell id="i68KkpBujc6OQGkgbkto-56" value="" style="endArrow=none;dashed=1;html=1;dashPattern=1 3;strokeWidth=2;rounded=0;exitX=1;exitY=0.5;exitDx=0;exitDy=0;entryX=0;entryY=0.5;entryDx=0;entryDy=0;" edge="1" parent="WIyWlLk6GJQsqaUBKTNV-1" source="i68KkpBujc6OQGkgbkto-54" target="i68KkpBujc6OQGkgbkto-12">
          <mxGeometry width="50" height="50" relative="1" as="geometry">
            <mxPoint x="290" y="470" as="sourcePoint" />
            <mxPoint x="484" y="395" as="targetPoint" />
          </mxGeometry>
        </mxCell>
      </root>
    </mxGraphModel>
  </diagram>
</mxfile>
